<?xml version="1.0" encoding="iso-8859-1"?>
<!-- Generator: Adobe Illustrator 19.0.0, SVG Export Plug-In . SVG Version: 6.00 Build 0)  -->
<svg version="1.1" id="Layer_1" xmlns="http://www.w3.org/2000/svg" xmlns:xlink="http://www.w3.org/1999/xlink" x="0px" y="0px"
	 viewBox="0 0 511.991 511.991" style="enable-background:new 0 0 511.991 511.991;" xml:space="preserve">
<g>
	<g>
		<path fill="#ffffff" style="fill: #ffffff)" d="M317.164,312.226c-13.09-7.936-34.133-13.568-61.483-13.568c-25.967,0.009-46.242,5.086-59.435,12.39
			c-1.707,0.947-2.458,2.987-1.937,4.864l53.154,189.85c1.024,3.669,4.361,6.212,8.166,6.229c0.017,0,0.034,0,0.051,0
			c3.789,0,7.134-2.5,8.192-6.144l55.066-188.792C319.476,315.221,318.802,313.216,317.164,312.226z"/>
	</g>
</g>
<g>
	<g>
		<path fill="#ffffff" style="fill: #ffffff)" d="M374.03,206.387c-2.458-9.865-7.322-17.715-13.807-22.579c3.465-12.279,2.313-27.58-3.43-38.647
			c-3.541-6.835-8.636-11.853-14.754-14.686c5.598-41.719-1.382-74.445-20.813-97.357C302.845,11.452,274.284,0,238.623,0
			c-3.78,0-7.117,2.492-8.183,6.127c-1.075,3.627,0.384,7.535,3.567,9.583c16.111,10.359,34.415,25.762,30.148,40.26
			c-6.434,21.897-57.165,37.897-76.732,37.897c-3.277,0-6.255,1.869-7.68,4.813c-1.425,2.944-1.041,6.443,0.99,9.011
			c0.717,0.905,1.434,4.207,0.316,7.569c-1.22,3.661-4.676,4.582-4.838,4.634c-8.917,1.818-16.316,7.688-21.009,16.725
			c-5.743,11.068-6.904,26.368-3.43,38.647c-6.485,4.864-11.349,12.706-13.807,22.579c-3.268,13.082-2.304,30.694,6.494,43.017
			c-3.516,14.234-0.99,28.279,7.177,39.142c7.245,9.634,18.074,15.77,31.198,17.877c0.981,0.162,1.98-0.051,2.833-0.555
			c16.64-9.882,40.994-15.727,70.025-15.727c34.432,0,62.319,8.201,78.498,21.658c1.135,0.939,2.645,1.289,4.045,0.828
			c9.062-3.029,16.649-8.235,22.127-15.531c8.166-10.863,10.692-24.909,7.177-39.142
			C376.325,237.082,377.298,219.469,374.03,206.387z"/>
	</g>
</g>
<g>
</g>
<g>
</g>
<g>
</g>
<g>
</g>
<g>
</g>
<g>
</g>
<g>
</g>
<g>
</g>
<g>
</g>
<g>
</g>
<g>
</g>
<g>
</g>
<g>
</g>
<g>
</g>
<g>
</g>
</svg>
