<svg aria-hidden="true" style="position: absolute; width: 0; height: 0; overflow: hidden;" version="1.1" xmlns="http://www.w3.org/2000/svg" xmlns:xlink="http://www.w3.org/1999/xlink">
<defs>
<symbol id="arrow-right" viewBox="0 0 32 32">
<path d="M19.414 27.414l10-10c0.781-0.781 0.781-2.047 0-2.828l-10-10c-0.781-0.781-2.047-0.781-2.828 0s-0.781 2.047 0 2.828l6.586 6.586h-19.172c-1.105 0-2 0.895-2 2s0.895 2 2 2h19.172l-6.586 6.586c-0.39 0.39-0.586 0.902-0.586 1.414s0.195 1.024 0.586 1.414c0.781 0.781 2.047 0.781 2.828 0z"></path>
</symbol>
<symbol id="Burger" viewBox="0 0 32 32">
<path fill="none" stroke="#d41443" style="stroke: var(--color1, #d41443)" stroke-linejoin="miter" stroke-linecap="butt" stroke-miterlimit="4" stroke-width="1.6" d="M0 6.4h32M0 16h32M0 25.6h32"></path>
</symbol>
<symbol id="tochki-white" viewBox="0 0 32 32">
<path fill="#fff" style="fill: var(--color2, #fff)" d="M19.692 16c0 2.039-1.653 3.692-3.692 3.692s-3.692-1.653-3.692-3.692c0-2.039 1.653-3.692 3.692-3.692s3.692 1.653 3.692 3.692z"></path>
<path fill="#fff" style="fill: var(--color2, #fff)" d="M7.385 16c0 2.039-1.653 3.692-3.692 3.692s-3.692-1.653-3.692-3.692c0-2.039 1.653-3.692 3.692-3.692s3.692 1.653 3.692 3.692z"></path>
<path fill="#fff" style="fill: var(--color2, #fff)" d="M32 16c0 2.039-1.653 3.692-3.692 3.692s-3.692-1.653-3.692-3.692c0-2.039 1.653-3.692 3.692-3.692s3.692 1.653 3.692 3.692z"></path>
</symbol>

<symbol id="krug" viewBox="0 0 32 32">
<path fill="#d9d9d9" style="fill: var(--color4, #d9d9d9)" d="M30.511 16c0 8.157-6.612 14.769-14.769 14.769s-14.769-6.612-14.769-14.769c0-8.157 6.612-14.769 14.769-14.769s14.769 6.612 14.769 14.769z"></path>
</symbol>
<symbol id="home" viewBox="0 0 32 32">
<path fill="#d31342" style="fill: var(--color5, #d31342)" d="M30.129 15.446c0.236-0.253 0.381-0.594 0.381-0.969 0-0.433-0.194-0.822-0.499-1.082l-0.002-0.002-13.637-11.769c-0.295-0.244-0.677-0.393-1.093-0.393-0.43 0-0.823 0.158-1.124 0.419l0.002-0.002-13.681 12.372c-0.292 0.26-0.475 0.637-0.475 1.057 0 0.388 0.156 0.739 0.409 0.994l-0-0 0.345 0.352c0.566 0.586 1.487 0.655 2.053 0.155l1.022-0.903v13.226c0.006 0.811 0.665 1.467 1.477 1.467 0.004 0 0.009-0 0.013-0h5.331c0.004 0 0.008 0 0.012 0 0.812 0 1.471-0.656 1.477-1.467v-9.253h6.804v9.253c-0.012 0.812 0.576 1.467 1.398 1.467h5.652c0.003 0 0.006 0 0.010 0 0.812 0 1.471-0.656 1.477-1.467v-13.039l0.633 0.546c0.347 0.3 1.078 0.059 1.63-0.542l0.389-0.418z"></path>
</symbol>
<symbol id="strelka" viewBox="0 0 32 32">
<path fill="none" stroke="#d41443" style="stroke: var(--color1, #d41443)" stroke-linejoin="round" stroke-linecap="round" stroke-miterlimit="4" stroke-width="6.4" d="M9.344 3.2l13.702 12.8-13.702 12.8"></path>
</symbol>
<symbol id="facebook" viewBox="0 0 32 32">
<path  d="M22.266 15.97h-4.176v15.39h-6.328v-15.392h-3.008v-5.408h3.008v-3.498c0-2.504 1.184-6.422 6.384-6.422l4.688 0.019v5.25h-3.402c-0.557 0-1.342 0.282-1.342 1.475v3.184h4.73l-0.554 5.4z"></path>
</symbol>
<symbol id="telegram" viewBox="0 0 32 32">
<path  d="M12.965 19.8l-0.509 6.672c0.726 0 1.042-0.293 1.419-0.642l3.408-3.040 7.064 4.827c1.296 0.672 2.208 0.318 2.557-1.112l4.637-20.277h0.002c0.411-1.789-0.693-2.486-1.955-2.048l-27.251 9.738c-1.859 0.672-1.832 1.642-0.317 2.080l6.968 2.022 16.184-9.451c0.762-0.47 1.453-0.211 0.883 0.261l-13.090 10.97z"></path>
</symbol>
<symbol id="github" viewBox="0 0 32 32">
<path  d="M16 0.941c-8.272 0-15.059 6.789-15.059 15.059 0 7.059 4.954 13.47 11.53 15.059v-4.982c-0.651 0.144-1.251 0.147-1.915-0.048-0.89-0.264-1.613-0.856-2.149-1.76-0.342-0.576-0.949-1.203-1.581-1.157l-0.155-1.758c1.368-0.117 2.55 0.834 3.253 2.014 0.312 0.525 0.672 0.832 1.133 0.968 0.445 0.131 0.923 0.069 1.482-0.128 0.139-1.117 0.651-1.536 1.037-2.123-3.922-0.586-5.485-2.667-6.106-4.309-0.822-2.181-0.381-4.906 1.072-6.627 0.029-0.032 0.080-0.122 0.061-0.182-0.667-2.014 0.144-3.68 0.176-3.856 0.768 0.227 0.893-0.229 3.341 1.258l0.422 0.254c0.176 0.106 0.122 0.045 0.299 0.032 0.943-0.266 2.029-0.428 3.15-0.445l0.010-0c1.147 0.018 2.247 0.183 3.294 0.478l-0.090-0.022 0.138 0.014c-0.013-0.002 0.037-0.010 0.12-0.059 3.056-1.851 2.947-1.246 3.766-1.512 0.030 0.176 0.832 1.869 0.171 3.856-0.088 0.275 2.651 2.784 1.133 6.811-0.621 1.643-2.184 3.723-6.106 4.309 0.502 0.768 1.107 1.174 1.104 2.755v6.219c6.576-1.589 11.53-8 11.53-15.059 0-8.272-6.787-15.059-15.059-15.059z"></path>
</symbol>
<symbol id="close" viewBox="0 0 32 32">
<path fill="none" stroke="#fff" style="stroke: var(--color1, #fff)" stroke-linejoin="miter" stroke-linecap="butt" stroke-miterlimit="4" stroke-width="2" d="M2.52 2l26.96 28M2 29.48l28-26.96"></path>
</symbol>
<symbol id="tochki-red" viewBox="0 0 256 32">
<path fill="#C7133E" style="fill: var(--color3, #C7133E)" d="M144 16c0 8.837-7.163 16-16 16s-16-7.163-16-16c0-8.837 7.163-16 16-16s16 7.163 16 16z"></path>
<path fill="#C7133E" style="fill: var(--color3, #C7133E)" d="M32 16c0 8.837-7.163 16-16 16s-16-7.163-16-16c0-8.837 7.163-16 16-16s16 7.163 16 16z"></path>
<path fill="#C7133E" style="fill: var(--color3, #C7133E)" d="M256 16c0 8.837-7.163 16-16 16s-16-7.163-16-16c0-8.837 7.163-16 16-16s16 7.163 16 16z"></path>
</symbol> (edited) 
<symbol id="icon-email-black" viewBox="0 0 32 32">
<path d="M26.667 5.333h-21.333c-1.467 0-2.653 1.2-2.653 2.667l-0.013 16c0 1.467 1.2 2.667 2.667 2.667h21.333c1.467 0 2.667-1.2 2.667-2.667v-16c0-1.467-1.2-2.667-2.667-2.667zM26.133 11l-9.427 5.893c-0.427 0.267-0.987 0.267-1.413 0l-9.427-5.893c-0.333-0.213-0.533-0.573-0.533-0.96 0-0.893 0.973-1.427 1.733-0.96l8.933 5.587 8.933-5.587c0.76-0.467 1.733 0.067 1.733 0.96 0 0.387-0.2 0.747-0.533 0.96z"></path>
</symbol>
<symbol id="icon-phone-black" viewBox="0 0 32 32">
<path d="M24.882 19.773l-3.268-0.373c-0.785-0.090-1.557 0.18-2.11 0.733l-2.367 2.367c-3.641-1.853-6.626-4.825-8.478-8.478l2.38-2.38c0.553-0.553 0.823-1.325 0.733-2.11l-0.373-3.242c-0.154-1.299-1.248-2.277-2.56-2.277h-2.226c-1.454 0-2.663 1.209-2.573 2.663 0.682 10.987 9.469 19.761 20.443 20.443 1.454 0.090 2.663-1.119 2.663-2.573v-2.226c0.013-1.3-0.965-2.393-2.264-2.547z"></path>
</symbol>
<symbol id="icon-person-black" viewBox="0 0 32 32">
<path d="M16 16c2.947 0 5.333-2.387 5.333-5.333s-2.387-5.333-5.333-5.333c-2.947 0-5.333 2.387-5.333 5.333s2.387 5.333 5.333 5.333zM16 18.667c-3.56 0-10.667 1.787-10.667 5.333v1.333c0 0.733 0.6 1.333 1.333 1.333h18.667c0.733 0 1.333-0.6 1.333-1.333v-1.333c0-3.547-7.107-5.333-10.667-5.333z"></path>
</symbol>
<symbol id="strelka2" viewBox="0 0 22 32">
<path fill="none" stroke="#fff" style="stroke: var(--color1, #fff)" stroke-linejoin="round" stroke-linecap="round" stroke-miterlimit="4" stroke-width="6.4" d="M5.899 3.2l13.301 12.8-13.301 12.8"></path>
</symbol>
</defs>
</svg>
