<svg aria-hidden="true" style="position: absolute; width: 0; height: 0; overflow: hidden;" version="1.1" xmlns="http://www.w3.org/2000/svg" xmlns:xlink="http://www.w3.org/1999/xlink">
<defs>
<symbol id="Adobe-After-Effects" viewBox="0 0 32 32">
<path fill="#d8a1ff" style="fill: var(--color1, #d8a1ff)" d="M1.447 1.584h29.070v28.802h-29.070v-28.802zM0.126 31.731h31.719v-31.492h-31.719v31.492zM22.566 15.418c0.673 0 0.915 0 0.978-0.026 0-0.097 0.025-0.162 0.025-0.226 0-0.724-0.343-2.070-1.715-2.070-1.27 0-1.81 1.132-1.944 2.328h2.655v-0.006zM19.885 17.262c0.025 1.817 0.87 3.040 2.884 3.040 0.781 0 1.454-0.11 2.153-0.414 0.095-0.039 0.159-0.026 0.159 0.097v1.682c0 0.136-0.038 0.201-0.133 0.272-0.699 0.349-1.575 0.511-2.655 0.511-3.487 0-4.795-2.626-4.795-5.543 0-3.176 1.613-5.776 4.452-5.776 2.884 0 3.887 2.464 3.887 4.469 0 0.647-0.038 1.171-0.108 1.429-0.025 0.11-0.064 0.149-0.172 0.175-0.267 0.039-1.042 0.097-2.204 0.097h-3.462v-0.039h-0.006zM12.797 15.891c-0.368-1.494-1.27-4.747-1.601-6.326h-0.025c-0.279 1.572-1.004 4.236-1.543 6.326h3.169zM9.088 18.070l-1.042 4.023c-0.025 0.11-0.064 0.149-0.197 0.149h-1.95c-0.133 0-0.159-0.039-0.133-0.201l3.754-13.363c0.064-0.239 0.108-0.433 0.133-1.106 0-0.097 0.038-0.136 0.108-0.136h2.776c0.095 0 0.133 0.026 0.159 0.136l4.198 14.495c0.025 0.11 0 0.175-0.108 0.175h-2.179c-0.108 0-0.172-0.039-0.197-0.136l-1.086-4.036h-4.236z"></path>
</symbol>
<symbol id="Adobe-Illustrator" viewBox="0 0 32 32">
<path fill="#ff7f18" style="fill: var(--color2, #ff7f18)" d="M1.423 1.584h29.070v28.802h-29.070v-28.802zM0.102 31.731h31.719v-31.492h-31.719v31.492zM20.878 11.467c0-0.11 0.038-0.162 0.159-0.162h2.077c0.108 0 0.159 0.039 0.159 0.162v10.62c0 0.11-0.025 0.162-0.159 0.162h-2.052c-0.133 0-0.172-0.065-0.172-0.175v-10.607h-0.013zM20.732 8.407c0-0.86 0.597-1.371 1.347-1.371 0.807 0 1.346 0.55 1.346 1.371 0 0.886-0.565 1.371-1.372 1.371-0.762 0.006-1.321-0.479-1.321-1.371zM14.787 15.891c-0.368-1.494-1.245-4.747-1.575-6.326h-0.025c-0.279 1.572-0.978 4.236-1.531 6.326h3.131zM11.116 18.070l-1.042 4.036c-0.025 0.11-0.064 0.136-0.197 0.136h-1.944c-0.133 0-0.159-0.039-0.133-0.201l3.754-13.376c0.064-0.239 0.108-0.459 0.133-1.119 0-0.097 0.038-0.136 0.108-0.136h2.776c0.095 0 0.133 0.026 0.159 0.136l4.205 14.521c0.025 0.11 0 0.175-0.108 0.175h-2.191c-0.108 0-0.172-0.026-0.197-0.123l-1.086-4.049h-4.236z"></path>
</symbol>
<symbol id="Figma" viewBox="0 0 21 32">
<path fill="#0acf83" style="fill: var(--color3, #0acf83)" d="M5.352 31.88c2.858 0 5.176-2.361 5.176-5.271v-5.271h-5.176c-2.858 0-5.176 2.361-5.176 5.271s2.318 5.271 5.176 5.271z"></path>
<path fill="#a259ff" style="fill: var(--color4, #a259ff)" d="M0.175 16.059c0-2.911 2.318-5.271 5.176-5.271h5.176v10.549h-5.176c-2.858-0.006-5.176-2.367-5.176-5.278z"></path>
<path fill="#f24e1e" style="fill: var(--color5, #f24e1e)" d="M0.175 5.51c0-2.911 2.318-5.271 5.176-5.271h5.176v10.549h-5.176c-2.858 0-5.176-2.367-5.176-5.278z"></path>
<path fill="#ff7262" style="fill: var(--color6, #ff7262)" d="M10.534 0.238h5.176c2.858 0 5.176 2.361 5.176 5.271s-2.318 5.271-5.176 5.271h-5.176v-10.543z"></path>
<path fill="#1abcfe" style="fill: var(--color7, #1abcfe)" d="M20.887 16.059c0 2.911-2.318 5.271-5.176 5.271s-5.176-2.361-5.176-5.271c0-2.911 2.318-5.271 5.176-5.271s5.176 2.361 5.176 5.271z"></path>
</symbol>
<symbol id="photoshop" viewBox="0 0 32 32">
<path fill="#000" style="fill: var(--color8, #000)" d="M1.399 1.574h29.037v28.748h-29.037v-28.748z"></path>
<path fill="#31c5f0" style="fill: var(--color9, #31c5f0)" d="M1.399 1.574h29.037v28.748h-29.037v-28.748zM0.079 31.666h31.67v-31.436h-31.67v31.436zM21.436 13.131c-1.041 0-1.396 0.536-1.396 0.982 0 0.485 0.235 0.82 1.637 1.557 2.069 1.021 2.716 2.003 2.716 3.437 0 2.151-1.612 3.308-3.789 3.308-1.149 0-2.139-0.239-2.704-0.575-0.095-0.039-0.108-0.11-0.108-0.213v-1.983c0-0.136 0.063-0.174 0.159-0.11 0.831 0.549 1.783 0.795 2.653 0.795 1.041 0 1.479-0.446 1.479-1.047 0-0.485-0.305-0.911-1.637-1.615-1.872-0.911-2.653-1.835-2.653-3.385 0-1.731 1.333-3.172 3.643-3.172 1.136 0 1.929 0.174 2.361 0.375 0.108 0.065 0.133 0.174 0.133 0.271v1.841c0 0.11-0.063 0.174-0.197 0.136-0.584-0.375-1.441-0.601-2.298-0.601zM10.088 14.727c0.305 0.026 0.54 0.026 1.066 0.026 1.542 0 2.996-0.549 2.996-2.688 0-1.706-1.041-2.565-2.799-2.565-0.527 0-1.028 0.026-1.269 0.039l0.006 5.188zM7.733 7.595c0-0.097 0.184-0.162 0.292-0.162 0.844-0.039 2.101-0.065 3.402-0.065 3.656 0 5.084 2.041 5.084 4.645 0 3.411-2.431 4.878-5.414 4.878-0.501 0-0.673-0.026-1.028-0.026v5.155c0 0.11-0.038 0.162-0.159 0.162h-2.018c-0.108 0-0.159-0.039-0.159-0.162v-14.426z"></path>
</symbol>
<symbol id="Star" viewBox="0 0 35 32">
<path d="M15.669 1.375c0.48-1.472 2.563-1.472 3.043 0l2.802 8.599c0.215 0.659 0.829 1.104 1.521 1.104h9.057c1.551 0 2.195 1.986 0.939 2.896l-7.32 5.303c-0.562 0.408-0.798 1.131-0.583 1.791l2.798 8.587c0.48 1.473-1.205 2.7-2.46 1.791l-7.337-5.316c-0.56-0.406-1.317-0.406-1.877 0l-7.337 5.316c-1.255 0.909-2.94-0.318-2.46-1.791l2.798-8.587c0.215-0.66-0.020-1.384-0.583-1.791l-7.32-5.303c-1.256-0.91-0.612-2.896 0.939-2.896h9.057c0.693 0 1.307-0.446 1.521-1.104l2.802-8.599z"></path>
</symbol>
<symbol id="Star-1" viewBox="0 0 35 32">
<path fill="#e5e5e5" style="fill: var(--color1, #e5e5e5)" d="M16.291 1.375c0.48-1.472 2.563-1.472 3.043 0l2.802 8.599c0.215 0.659 0.829 1.104 1.521 1.104h9.057c1.551 0 2.195 1.986 0.939 2.896l-7.32 5.303c-0.562 0.408-0.798 1.131-0.583 1.791l2.798 8.587c0.48 1.473-1.205 2.7-2.46 1.791l-7.337-5.316c-0.56-0.406-1.317-0.406-1.877 0l-7.337 5.316c-1.255 0.909-2.94-0.318-2.46-1.791l2.798-8.587c0.215-0.66-0.020-1.384-0.583-1.791l-7.32-5.303c-1.256-0.91-0.612-2.896 0.939-2.896h9.057c0.693 0 1.307-0.446 1.521-1.104l2.802-8.599z"></path>
</symbol>
<symbol id="ball" viewBox="0 0 31 32">
<path stroke-linejoin="miter" stroke-linecap="butt" stroke-miterlimit="4" stroke-width="0.7805" d="M23.933 6.167l0.238-0.3-0.295-0.244c-2.237-1.867-5.142-3.001-8.313-3.001-0.006 0-0.011 0-0.017 0h0.001c-1.139 0.006-2.24 0.155-3.29 0.43l0.092-0.020-0.567 0.141 0.349 0.47c1.085 1.46 2.644 3.665 4.511 7.12l0.162 0.298 0.318-0.119c3.533-1.311 5.651-3.319 6.81-4.775zM10.43 4.015l-0.192-0.252-0.286 0.135c-3.509 1.655-6.168 4.817-7.217 8.678l-0.13 0.476 0.494 0.016c1.932 0.062 6.551-0.030 11.67-1.401l0.483-0.129-0.243-0.437c-1.986-3.578-3.655-5.868-4.58-7.086zM25.613 7.34l-0.303-0.361-0.297 0.364c-1.293 1.577-3.537 3.627-7.090 5.017l-0.395 0.155 0.187 0.381c0.661 1.283 1.396 2.936 2.053 4.628l0.133 0.388 0.112 0.296 0.312-0.048c1.348-0.215 2.901-0.337 4.484-0.337 0.794 0 1.582 0.031 2.361 0.092l-0.103-0.006c0.437 0.036 0.718 0.077 1.046 0.125l0.614 0.087 0.043-0.401c0.053-0.454 0.083-0.98 0.083-1.513 0-3.388-1.225-6.489-3.256-8.886l0.017 0.020zM16.133 13.292l-0.144-0.289-0.311 0.088c-6.020 1.709-11.323 1.658-12.975 1.591l-0.376-0.016-0.029 0.375-0.002 0.027c-0.029 0.371-0.058 0.753-0.058 1.159 0 4.085 1.767 7.732 4.554 10.226l0.291 0.261 0.26-0.291c0.892-1 1.798-1.918 2.747-2.791l0.028-0.026 0.002-0.001c2.143-1.976 4.901-4.066 7.905-4.979l0.404-0.123-0.153-0.393c-0.787-2.015-1.507-3.603-2.295-5.15l0.152 0.33zM23.54 19.455h-0.005c-0.938 0.047-1.794 0.129-2.639 0.246l0.156-0.018-0.464 0.062 0.145 0.445c0.721 2.22 1.317 4.571 1.702 7.017l0.098 0.617 0.511-0.357c2.495-1.759 4.346-4.284 5.22-7.23l0.024-0.096 0.129-0.445-0.46-0.052c-1.14-0.129-2.583-0.258-4.416-0.19zM19.125 20.38l-0.12-0.354-0.359 0.104c-2.639 0.768-5.399 2.759-7.491 4.68-1.011 0.919-1.827 1.793-2.483 2.508l-0.322 0.352 0.409 0.246c1.986 1.198 4.293 1.903 6.782 1.903 1.868 0 3.631-0.395 5.24-1.090l0.272-0.117-0.040-0.293c-0.378-2.789-1.045-5.448-1.889-7.938zM0.677 16.22c0-8.393 6.686-15.219 14.871-15.219s14.871 6.826 14.871 15.22c0 8.392-6.686 15.218-14.871 15.218s-14.871-6.826-14.871-15.219z"></path>
</symbol>
<symbol id="be" viewBox="0 0 33 32">
<path stroke-linejoin="miter" stroke-linecap="butt" stroke-miterlimit="4" stroke-width="0.4" d="M27.456 0h-22.688c-2.592 0-4.7 2.102-4.7 4.688v22.624c0 2.586 2.108 4.688 4.7 4.688h22.688c2.592 0 4.701-2.103 4.701-4.688v-22.624c0-2.586-2.109-4.688-4.701-4.688zM30.277 27.312c-0.004 1.554-1.265 2.813-2.82 2.813-0 0-0.001 0-0.001 0h-22.688c0 0 0 0 0 0-1.555 0-2.815-1.258-2.82-2.812v-22.626c0.005-1.554 1.265-2.812 2.82-2.812 0 0 0 0 0 0h22.688c0 0 0.001 0 0.001 0 1.555 0 2.815 1.258 2.82 2.812v22.626z"></path>
<path stroke-linejoin="miter" stroke-linecap="butt" stroke-miterlimit="4" stroke-width="0.4" d="M15.172 13.187c0-2.068-1.686-3.75-3.76-3.75h-5.641v13.125h5.64c2.074 0 3.761-1.682 3.761-3.75 0-0 0-0.001 0-0.001 0-1.119-0.492-2.123-1.272-2.808l-0.004-0.004c0.784-0.688 1.277-1.693 1.277-2.812 0-0 0-0 0-0v0zM13.292 18.813c-0.003 1.036-0.844 1.874-1.88 1.874 0 0 0 0 0 0h-3.76v-3.75h3.76c0 0 0 0 0 0 1.037 0 1.877 0.839 1.88 1.875v0zM7.652 15.062v-3.75h3.76c0 0 0 0 0 0 1.036 0 1.877 0.838 1.88 1.874v0c-0.003 1.036-0.843 1.875-1.88 1.875 0 0 0 0 0 0h-3.76zM21.753 13.187c-2.592 0-4.701 2.103-4.701 4.688s2.109 4.688 4.701 4.688c1.729-0.003 3.239-0.934 4.059-2.322l0.012-0.022-1.628-0.938c-0.498 0.847-1.405 1.407-2.443 1.407-1.219 0-2.258-0.773-2.653-1.855l-0.006-0.020h7.36v-0.938c0-2.585-2.109-4.688-4.701-4.688zM19.094 16.938c0.402-1.101 1.44-1.873 2.659-1.873s2.257 0.772 2.653 1.854l0.006 0.020h-5.318zM17.992 9.438h7.522v1.875h-7.522v-1.875z"></path>
</symbol>
<symbol id="insta" viewBox="0 0 31 32">
<path stroke-linejoin="miter" stroke-linecap="butt" stroke-miterlimit="4" stroke-width="0.7805" d="M9.495 1.009h0.39v-0.008h12.414c4.656 0 8.466 3.891 8.466 8.673v13.093c0 4.783-3.811 8.673-8.459 8.673h-12.811c-4.656-0.001-8.473-3.884-8.473-8.659v-13.099c0-4.782 3.817-8.673 8.473-8.673zM2.59 9.688v13.101c0 3.892 3.066 7.038 6.906 7.038h12.811c3.828 0 6.892-3.147 6.892-7.052v-13.092c0-3.906-3.065-7.053-6.899-7.053h-12.804c-3.835 0-6.898 3.147-6.906 7.059zM24.509 6.621c0-0.46 0.354-0.81 0.784-0.81s0.784 0.35 0.784 0.81-0.354 0.81-0.784 0.81-0.784-0.35-0.784-0.81zM8.074 16.224c0-4.414 3.532-8.012 7.828-8.012s7.827 3.598 7.827 8.012-3.532 8.012-7.828 8.012c-4.296 0-7.828-3.598-7.828-8.012zM22.162 16.224c0-3.539-2.779-6.392-6.259-6.392s-6.26 2.853-6.26 6.392 2.779 6.392 6.26 6.392c3.482 0 6.26-2.853 6.26-6.392z"></path>
</symbol>
<symbol id="in" viewBox="0 0 32 32">
<path stroke-linejoin="miter" stroke-linecap="butt" stroke-miterlimit="4" stroke-width="0.3902" d="M26.985 0.502h-22.166c-2.531 0-4.591 2.054-4.591 4.579v22.106c0 2.525 2.061 4.58 4.592 4.58h22.165c2.532 0 4.592-2.055 4.592-4.58v-22.106c0-2.526-2.061-4.58-4.592-4.58zM29.741 27.187c-0.004 1.519-1.236 2.748-2.755 2.748 0 0 0 0 0 0h-22.166c0 0 0 0 0 0-1.519 0-2.751-1.229-2.755-2.747v-22.107c0.004-1.519 1.236-2.748 2.755-2.748 0 0 0 0 0 0h22.166c0 0 0 0 0 0 1.519 0 2.751 1.229 2.755 2.747v22.107z"></path>
<path d="M24.523 23.164h-3.365v-5.621c0-0.388-0.028-0.771-0.126-1.149-0.402-1.56-2.139-1.469-2.831-0.73-0.347 0.372-0.574 0.791-0.584 1.31-0.002 0.123-0.009 0.247-0.009 0.371v5.817h-3.359v-10.43h3.358v1.399l0.027 0.012c0.023-0.032 0.048-0.064 0.072-0.098 0.337-0.467 0.724-0.882 1.237-1.161 0.574-0.314 1.194-0.418 1.839-0.4 0.699 0.020 1.361 0.177 1.959 0.553 0.765 0.482 1.232 1.186 1.506 2.032 0.213 0.659 0.283 1.339 0.283 2.028 0.002 1.982 0 3.963 0 5.944 0 0.039-0.003 0.078-0.005 0.123z"></path>
<path d="M24.523 23.164v0.023h0.023l0.001-0.023-0.023-0.001zM21.157 23.164h-0.023v0.023h0.023v-0.023zM21.157 17.543h0.001zM21.032 16.394v0zM18.201 15.664l0.018 0.016-0.018-0.016zM17.617 16.975v0zM17.608 17.346v0zM17.608 23.163v0.024h0.023v-0.023h-0.023zM14.249 23.163h-0.023v0.024h0.023v-0.023zM14.249 12.731v-0.023h-0.023v0.023h0.023zM17.606 12.731h0.023v-0.023h-0.023v0.023zM17.606 14.131h-0.024v0.016l0.014 0.006 0.009-0.022zM17.633 14.142l-0.009 0.022 0.017 0.008 0.012-0.016-0.020-0.014zM17.705 14.045v0zM18.942 12.883v0zM20.78 12.484l0.001-0.023v0.023zM22.739 13.037v0zM24.245 15.070v0zM24.528 17.097v0zM24.528 23.042v0zM24.523 23.14h-3.365v0.048h3.365v-0.047zM21.182 23.163v-0.154h-0.048v0.155h0.048zM21.182 23.009v-5.466h-0.047c-0.002 1.822-0.001 3.644-0.001 5.466h0.048zM21.182 17.543c0-0.389-0.029-0.774-0.126-1.155l-0.047 0.012c0.097 0.376 0.126 0.757 0.126 1.143h0.048zM21.055 16.388c-0.204-0.79-0.747-1.163-1.327-1.245-0.578-0.080-1.193 0.13-1.545 0.505l0.035 0.033c0.34-0.364 0.939-0.569 1.502-0.49 0.562 0.078 1.089 0.439 1.288 1.21l0.046-0.012zM18.184 15.648c-0.35 0.375-0.581 0.8-0.59 1.327h0.047c0.010-0.511 0.234-0.926 0.578-1.294l-0.034-0.033zM17.594 16.975c-0.002 0.121-0.009 0.247-0.009 0.371h0.047c0-0.124 0.008-0.245 0.010-0.37l-0.048-0.002zM17.584 17.346l-0.001 5.657h0.048v-5.657h-0.047zM17.584 23.003v0.161h0.048v-0.159h-0.048zM17.607 23.139h-3.358v0.048h3.358v-0.048zM14.272 23.163v-10.431h-0.047v10.431h0.047zM14.249 12.755h3.358v-0.048h-3.358v0.048zM17.581 12.732v1.398h0.048v-1.398h-0.048zM17.597 14.153l0.027 0.012 0.019-0.044-0.027-0.012-0.020 0.044zM17.651 14.157l0.073-0.098-0.039-0.028-0.072 0.097 0.039 0.029zM17.724 14.059c0.336-0.466 0.72-0.877 1.229-1.155l-0.023-0.041c-0.517 0.283-0.907 0.7-1.244 1.169l0.039 0.027zM18.953 12.904c0.57-0.31 1.185-0.414 1.826-0.396l0.002-0.047c-0.648-0.020-1.272 0.086-1.851 0.402l0.023 0.042zM20.78 12.507c0.695 0.020 1.354 0.177 1.947 0.55l0.026-0.041c-0.601-0.379-1.269-0.537-1.971-0.557l-0.002 0.048zM22.726 13.058c0.76 0.478 1.224 1.179 1.496 2.019l0.045-0.014c-0.275-0.851-0.744-1.561-1.516-2.046l-0.026 0.041zM24.222 15.077c0.212 0.656 0.281 1.334 0.282 2.021h0.048c-0.001-0.69-0.071-1.373-0.285-2.035l-0.045 0.014zM24.504 17.097c0.002 1.982 0.001 3.963 0.001 5.944h0.048c0-1.981 0.002-3.963 0-5.944h-0.048zM24.505 23.042c0 0.038-0.004 0.075-0.006 0.121l0.048 0.002c0.002-0.043 0.006-0.084 0.006-0.123h-0.048z"></path>
<path d="M12.184 23.157h-3.317v-10.416h3.317v10.416zM10.669 7.549c0.523-0.001 0.968 0.184 1.284 0.502s0.502 0.766 0.503 1.295c0.002 0.523-0.186 0.968-0.506 1.283s-0.773 0.499-1.307 0.499c-1.040 0.002-1.78-0.741-1.783-1.787s0.749-1.791 1.808-1.792z"></path>
</symbol>
<symbol id="Group" viewBox="0 0 32 32">
<path fill="#828282" style="fill: var(--color1, #828282)" d="M3.738 0l26.929 26.929-3.738 3.738-26.929-26.929z"></path>
<path fill="#828282" style="fill: var(--color1, #828282)" d="M1.156 27.21l26.929-26.929 3.738 3.738-26.929 26.929z"></path>
</symbol>
<symbol id="Group-3" viewBox="0 0 53 32">
<path d="M0 0h52.8v6.139h-52.8zM0 12.278h52.8v6.139h-52.8zM0 24.56h52.8v6.139h-52.8z"></path>
</symbol>
</defs>
</svg>
